<svg xmlns="http://www.w3.org/2000/svg" viewBox="0 0 271 294.51"><defs><style>.cls-1{fill:#fdf4c6;}.cls-2{fill:#fef9e3;}.cls-3{fill:#fff;}.cls-4{opacity:0.9;}.cls-5{fill:#036;}.cls-10,.cls-11,.cls-12,.cls-13,.cls-5,.cls-6,.cls-7,.cls-8,.cls-9{opacity:0.85;}.cls-6{fill:#ccc;}.cls-7{fill:#999;}.cls-8{fill:#4f555f;}.cls-9{fill:#588a99;}.cls-10{fill:#333;}.cls-11{fill:#366395;}.cls-12{fill:#419acf;}.cls-13{fill:#33a3ac;}</style></defs><title>ivoryShield</title><g id="Calque_3" data-name="Calque 3"><polyline class="cls-1" points="135.5 294.51 37.38 241.55 0 47.79 135.5 0"/><polyline class="cls-2" points="135.5 0 271 47.79 228.95 237.67 135.5 294.51"/></g><g id="Calque_4" data-name="Calque 4"><path class="cls-3" d="M148.62,13.16l-.12,0h0c-10.15,4.55-20.36,9-30.58,13.31l-15.35,6.49c-1.28.54-2.56,1.09-3.86,1.56s-2.62.92-3.94,1.34c-2.63.87-5.24,1.81-7.86,2.73L24.16,60.68l2.28-4L61.06,236.17l-1.78-2.42L82,246l11.36,6.13c1.9,1,3.79,2,5.7,3a60.9,60.9,0,0,1,5.64,3.14l22,13.67,10.94,6.91,10.9,7-11.82-5.28-11.78-5.36L101.42,264.4a63.35,63.35,0,0,1-5.72-3c-1.87-1.07-3.77-2.08-5.66-3.1l-11.36-6.13L56,239.91l-1.46-.78-.32-1.63L19.56,58l-.57-3,2.85-1L84.59,32c2.61-.93,5.23-1.83,7.83-2.81,1.29-.5,2.59-1,3.9-1.43s2.65-.82,4-1.2l16-4.58c10.69-3,21.41-6,32.17-8.83h0Z" transform="translate(-13 -2.25)"/><g class="cls-4"><path class="cls-3" d="M148.5,285.89l10.3-7.44,10.36-7.33c6.91-4.89,13.87-9.68,20.81-14.52,1.73-1.23,3.54-2.31,5.37-3.36s3.64-2.14,5.44-3.24l10.82-6.58,21.63-13.16-1.6,2.23L270.58,56.62l2.26,4.06L210.15,38.57c-2.62-.91-5.22-1.86-7.85-2.74-1.31-.44-2.63-.87-3.93-1.33s-2.58-1-3.86-1.57l-15.33-6.5q-15.31-6.51-30.56-13.27,16.11,4.29,32.13,8.83l16,4.56c1.34.39,2.68.75,4,1.2s2.6.94,3.9,1.43c2.59,1,5.22,1.86,7.82,2.79l62.69,22.11,2.93,1-.67,3L238.47,234l-.32,1.46-1.28.78L215.23,249.4,204.41,256c-1.8,1.09-3.6,2.19-5.38,3.33s-3.57,2.25-5.45,3.22c-7.49,3.94-15,7.91-22.46,11.8l-11.28,5.83Z" transform="translate(-13 -2.25)"/></g></g><g id="Calque_5" data-name="Calque 5"><polygon class="cls-5" points="209.99 74.42 213 105.27 199.45 132.37 178.38 141.4 171.98 139.14 171.97 139.14 168.97 124.52 171.98 113.99 171.23 96.68 174.24 90.66 171.23 82.38 174.99 73.72 161.45 58.67 161.45 58.61 176.12 55.6 192.55 52.97 209.99 74.42"/><polygon class="cls-6" points="193.67 200.85 193.5 200.77 200.96 191.07 194.56 208.38 194.55 208.38 193.67 200.85"/><polygon class="cls-6" points="193.67 200.85 194.55 208.38 174.15 204.67 174.17 204.56 193.67 200.85"/><polygon class="cls-6" points="193.5 200.77 193.67 200.85 174.17 204.56 174.15 204.67 173.87 204.62 162.73 186.39 162.83 186.33 180.62 194.7 180.64 194.83 193.43 200.85 193.5 200.77"/><polygon class="cls-7" points="180.62 194.7 162.83 186.33 172.74 151.99 172.74 151.99 175.37 168.49 180.62 194.7"/><polygon class="cls-8" points="161.45 58.67 174.99 73.72 171.23 82.38 161.45 58.67"/><polygon class="cls-9" points="171.97 139.14 171.98 139.14 174.62 149.68 172.74 151.93 172.74 151.99 172.74 151.99 153.19 170.78 153.18 170.77 168.97 124.52 171.97 139.14"/><polygon class="cls-9" points="171.23 82.38 174.24 90.66 165.96 88.4 171.23 82.38"/><polygon class="cls-10" points="174.24 90.66 171.23 96.68 161.45 97.43 165.96 88.4 174.24 90.66"/><polygon class="cls-7" points="172.74 151.99 162.83 186.33 162.73 186.39 153.19 170.78 172.74 151.99"/><polygon class="cls-11" points="171.23 96.68 171.98 113.99 160.69 105.33 161.45 97.43 171.23 96.68"/><polygon class="cls-8" points="171.98 113.99 168.97 124.52 160.87 105.73 160.69 105.33 171.98 113.99"/><polygon class="cls-12" points="161.45 58.67 171.23 82.38 160.69 78.61 161.45 58.67"/><polygon class="cls-9" points="171.23 82.38 165.96 88.4 160.69 78.61 171.23 82.38"/><polygon class="cls-11" points="158.27 128.11 158.29 127.95 156.74 123.18 156.93 123.11 160.69 105.81 160.87 105.73 168.97 124.52 153.18 170.77 153.18 170.75 154.49 159.81 158.27 128.11"/><polygon class="cls-12" points="160.69 78.61 165.96 88.4 141.88 83.51 160.69 78.61"/><polygon class="cls-9" points="165.96 88.4 161.45 97.43 140.37 90.28 141.88 83.51 165.96 88.4"/><polygon class="cls-12" points="161.45 58.61 161.45 58.67 141.88 83.51 135.86 88.02 130.59 83.51 110.27 58.67 110.27 58.61 127.2 51.84 133.2 51.84 139.27 51.84 145.27 51.84 161.45 58.61"/><polygon class="cls-9" points="161.45 58.67 160.69 78.61 141.88 83.51 161.45 58.67"/><polygon class="cls-13" points="143.48 95.77 142.63 95.27 140.37 90.75 135.86 88.5 135.65 88.15 135.86 88.02 140.37 90.28 161.45 97.43 160.69 105.33 160.87 105.73 160.69 105.81 143.48 95.77"/><polygon class="cls-9" points="160.69 105.81 156.93 123.11 156.74 123.18 156.73 123.18 156.56 122.64 143.48 95.77 160.69 105.81"/><polygon class="cls-12" points="156.74 123.18 158.29 127.95 158.27 128.11 136.24 155.91 136.24 124.56 135.86 124.31 142.63 95.27 143.48 95.77 156.56 122.64 156.73 123.18 156.74 123.18"/><polygon class="cls-13" points="136.24 155.91 158.27 128.11 154.49 159.81 154.43 159.8 136.24 156.45 136.24 155.91"/><polygon class="cls-9" points="154.49 159.81 153.18 170.75 153.17 170.75 148.47 210.78 136.24 206.31 136.24 205.37 154.43 159.8 154.49 159.81"/><polygon class="cls-12" points="154.43 159.8 136.24 205.37 136.24 156.51 136.24 156.45 154.43 159.8"/><polygon class="cls-12" points="153.18 170.75 153.18 170.77 153.17 170.81 153.18 170.75"/><polygon class="cls-12" points="148.47 210.78 143.2 255.65 135.91 206.18 136.24 205.37 136.24 206.31 148.47 210.78"/><polygon class="cls-13" points="135.91 206.18 143.2 255.65 143.06 256.88 143.05 256.88 129.17 256.88 129.04 256.9 128.97 256.13 129 256.12 135.79 206.34 135.86 206.31 135.91 206.18"/><polygon class="cls-10" points="143.05 256.88 143.01 257.3 135.87 261.58 129.09 257.3 129.04 256.9 129.17 256.88 143.05 256.88"/><polygon class="cls-8" points="140.37 90.75 142.63 95.27 132.19 95.27 129.84 95.27 132.09 90.75 135.86 88.5 140.37 90.75"/><polygon class="cls-9" points="142.63 95.27 135.86 124.31 129.84 95.27 132.19 95.27 142.63 95.27"/><polygon class="cls-11" points="141.88 83.51 140.37 90.28 135.86 88.02 141.88 83.51"/><polygon class="cls-11" points="136.24 156.51 136.24 205.37 135.91 206.18 135.86 205.83 135.81 206.18 118.55 160.27 135.86 156.38 136.24 156.45 136.24 156.51"/><polygon class="cls-13" points="136.24 155.91 136.24 156.45 135.86 156.38 136.24 155.91"/><polygon class="cls-11" points="136.24 124.56 136.24 155.91 135.86 156.38 114.78 127.91 114.48 127.79 116.29 123.11 129.84 95.27 135.86 124.31 136.24 124.56"/><polygon class="cls-13" points="135.86 205.83 135.91 206.18 135.86 206.31 135.81 206.18 135.86 205.83"/><polygon class="cls-13" points="135.65 88.15 135.86 88.5 132.09 90.75 129.84 95.27 111.02 105.05 110.98 105.05 110.98 104.68 111.02 104.58 110.98 104.61 110.98 97.05 110.99 97.05 111.02 97.05 111.02 97.05 132.06 90.28 132.09 90.28 135.65 88.15"/><polygon class="cls-13" points="114.78 127.91 135.86 156.38 118.55 160.27 118.53 160.27 114.13 128.67 114.48 127.79 114.78 127.91"/><polygon class="cls-9" points="135.81 206.18 135.86 206.31 135.79 206.34 135.81 206.18"/><polygon class="cls-11" points="135.86 88.02 135.65 88.15 132.09 90.28 130.59 83.51 135.86 88.02"/><polygon class="cls-9" points="135.81 206.18 135.79 206.34 124.34 211.79 120.05 170.75 120.04 170.77 119.95 170.5 118.53 160.27 118.55 160.27 135.81 206.18"/><polygon class="cls-11" points="124.34 211.79 135.79 206.34 129 256.12 128.97 256.13 124.34 211.79"/><polygon class="cls-9" points="130.59 83.51 132.09 90.28 132.06 90.28 111.02 97.05 106.51 88.02 130.59 83.51"/><polygon class="cls-9" points="110.27 58.67 130.59 83.51 111.78 78.24 110.27 58.67"/><polygon class="cls-12" points="130.59 83.51 106.51 88.02 111.78 78.24 130.59 83.51"/><polygon class="cls-9" points="129.84 95.27 116.29 123.11 111.02 105.05 129.84 95.27"/><polygon class="cls-9" points="119.95 170.5 120.04 170.77 120.03 170.78 119.98 170.74 119.95 170.5"/><polygon class="cls-8" points="120.03 170.78 119.99 170.84 119.98 170.74 120.03 170.78"/><polygon class="cls-7" points="119.98 170.74 119.99 170.84 110.41 185.97 98.98 151.99 119.98 170.74"/><polygon class="cls-9" points="119.95 170.5 119.98 170.74 98.98 151.99 98.97 151.99 98.98 151.93 97.85 149.68 99.79 140.62 99.81 140.62 103.5 124.15 119.95 170.5"/><polygon class="cls-12" points="110.98 105.05 111.02 105.05 116.29 123.11 114.48 127.79 114.13 128.67 118.53 160.27 119.95 170.5 103.5 124.15 110.98 104.68 110.98 105.05"/><polygon class="cls-12" points="110.27 58.67 111.78 78.24 101.24 82 110.27 58.67"/><polygon class="cls-8" points="111.78 78.24 106.51 88.02 101.24 82 111.78 78.24"/><polygon class="cls-10" points="111.02 97.05 111.02 97.05 110.99 97.05 111.02 97.05"/><polygon class="cls-13" points="111.02 104.58 110.98 104.68 110.98 104.61 111.02 104.58"/><polygon class="cls-10" points="106.51 88.02 111.02 97.05 110.99 97.05 110.98 97.05 101.24 96.3 98.23 90.28 106.51 88.02"/><polygon class="cls-8" points="110.98 104.61 110.98 104.68 103.5 124.15 100.49 113.61 110.98 104.61"/><polygon class="cls-11" points="110.98 97.05 110.98 104.61 100.49 113.61 101.24 96.3 110.98 97.05"/><polygon class="cls-7" points="110.41 185.97 110.37 186.04 92.22 194.76 97.1 168.49 98.97 151.99 98.98 151.99 110.41 185.97"/><polygon class="cls-6" points="110.37 186.04 98.61 204.62 98.23 204.68 98.23 204.68 79.41 200.91 85.51 197.98 92.21 194.83 92.22 194.76 110.37 186.04"/><polygon class="cls-5" points="110.27 58.61 110.27 58.67 97.48 74.47 101.24 82 98.23 90.28 101.24 96.3 100.49 113.61 103.5 124.15 99.81 140.62 99.79 140.62 100.11 139.14 94.09 141.4 73.02 132.37 59.47 105.27 62.48 74.42 79.92 52.97 96.35 55.6 110.27 58.61"/><polygon class="cls-8" points="110.27 58.67 101.24 82 97.48 74.47 110.27 58.67"/><polygon class="cls-8" points="101.24 82 106.51 88.02 98.23 90.28 101.24 82"/><polygon class="cls-6" points="98.23 204.68 98.23 204.68 77.92 208.38 79.41 200.91 98.23 204.68"/><polygon class="cls-6" points="85.51 197.98 79.41 200.91 77.92 208.38 77.91 208.38 71.51 191.07 79.41 200.85 85.51 197.98"/></g></svg>