<?xml version="1.0" encoding="utf-8"?>
<!-- Generator: Adobe Illustrator 22.1.0, SVG Export Plug-In . SVG Version: 6.00 Build 0)  -->
<svg version="1.1" id="Calque_1" xmlns="http://www.w3.org/2000/svg" xmlns:xlink="http://www.w3.org/1999/xlink" x="0px" y="0px"
	 viewBox="0 0 48 48" style="enable-background:new 0 0 48 48;" xml:space="preserve">
<style type="text/css">
	.st0{clip-path:url(#SVGID_2_);fill:#FFFFFF;}
</style>
<g>
	<defs>
		<rect id="SVGID_1_" y="0" width="48" height="48"/>
	</defs>
	<clipPath id="SVGID_2_">
		<use xlink:href="#SVGID_1_"  style="display:none;overflow:visible;"/>
	</clipPath>
	<path class="st0" d="M24,34c2.2,0,4-1.8,4-4s-1.8-4-4-4s-4,1.8-4,4S21.8,34,24,34z M36,16h-2v-4c0-5.5-4.5-10-10-10S14,6.5,14,12v4
		h-2c-2.2,0-4,1.8-4,4v20c0,2.2,1.8,4,4,4h24c2.2,0,4-1.8,4-4V20C40,17.8,38.2,16,36,16z M17.8,12c0-3.4,2.8-6.2,6.2-6.2
		s6.2,2.8,6.2,6.2v4H17.8V12z M36,40H12V20h24V40z"/>
</g>
</svg>
